<svg width="64" height="64" viewBox="0 0 64 64" fill="none" xmlns="http://www.w3.org/2000/svg">
<rect width="64" height="64" rx="10" fill="#F5F4F2" fill-opacity = "0"/>
<g clip-path="url(#clip0_553_106)">
<path d="M18.9708 27.3437C19.9456 24.3947 21.8268 21.8288 24.3461 20.0121C26.8653 18.1954 29.894 17.2207 33 17.2271C36.5208 17.2271 39.7041 18.4771 42.2041 20.5229L49.4791 13.25C45.0458 9.38542 39.3646 7 33 7C23.1458 7 14.6625 12.6208 10.5833 20.8542L18.9708 27.3437Z" fill="#EA4335"/>
<path d="M41.4167 44.5271C39.1458 45.9917 36.2625 46.7729 33 46.7729C29.9064 46.7793 26.8892 45.8124 24.3755 44.0091C21.8618 42.2058 19.9791 39.6575 18.9938 36.725L10.5771 43.1146C12.6422 47.2944 15.8381 50.8112 19.8017 53.2657C23.7654 55.7202 28.3379 57.014 33 57C39.1104 57 44.9479 54.8271 49.3208 50.75L41.4188 44.5271H41.4167Z" fill="#34A853"/>
<path d="M49.3208 50.75C53.8937 46.4833 56.8625 40.1333 56.8625 32C56.8625 30.5208 56.6354 28.9312 56.2958 27.4542H33V37.1146H46.4083C45.7479 40.3625 43.9708 42.8771 41.4187 44.5271L49.3208 50.75Z" fill="#4A90E2"/>
<path d="M18.9939 36.725C18.4842 35.2019 18.2253 33.6061 18.2272 32C18.2272 30.3708 18.4876 28.8062 18.971 27.3437L10.5835 20.8542C8.86757 24.3181 7.98304 28.1344 8.00012 32C8.00012 36 8.9272 39.7708 10.5772 43.1146L18.9939 36.725Z" fill="#FBBC05"/>
</g>
<defs>
<clipPath id="clip0_553_106">
<rect width="50" height="50" fill="white" transform="translate(8 7)"/>
</clipPath>
</defs>
</svg>
